<svg width="28" height="27" viewBox="0 0 28 27" fill="none" xmlns="http://www.w3.org/2000/svg">
<path d="M14.1249 9.79155C12.2418 9.79155 10.705 11.3283 10.705 13.2115C10.705 15.0946 12.2418 16.6314 14.1249 16.6314C16.0081 16.6314 17.5449 15.0946 17.5449 13.2115C17.5449 11.3283 16.0081 9.79155 14.1249 9.79155ZM24.3822 13.2115C24.3822 11.7953 24.395 10.3919 24.3155 8.97826C24.2359 7.33628 23.8614 5.87903 22.6607 4.67833C21.4574 3.47507 20.0027 3.10306 18.3607 3.02352C16.9445 2.94399 15.5411 2.95682 14.1275 2.95682C12.7113 2.95682 11.3079 2.94399 9.89428 3.02352C8.2523 3.10306 6.79504 3.47763 5.59435 4.67833C4.39108 5.88159 4.01907 7.33628 3.93954 8.97826C3.86001 10.3945 3.87283 11.7978 3.87283 13.2115C3.87283 14.6251 3.86001 16.0311 3.93954 17.4447C4.01907 19.0867 4.39365 20.5439 5.59435 21.7446C6.79761 22.9479 8.2523 23.3199 9.89428 23.3994C11.3105 23.479 12.7139 23.4662 14.1275 23.4662C15.5437 23.4662 16.9471 23.479 18.3607 23.3994C20.0027 23.3199 21.46 22.9453 22.6607 21.7446C23.8639 20.5414 24.2359 19.0867 24.3155 17.4447C24.3976 16.0311 24.3822 14.6277 24.3822 13.2115ZM14.1249 18.4735C11.213 18.4735 8.86291 16.1234 8.86291 13.2115C8.86291 10.2995 11.213 7.94946 14.1249 7.94946C17.0369 7.94946 19.387 10.2995 19.387 13.2115C19.387 16.1234 17.0369 18.4735 14.1249 18.4735ZM19.6025 8.96287C18.9226 8.96287 18.3736 8.41383 18.3736 7.73395C18.3736 7.05407 18.9226 6.50503 19.6025 6.50503C20.2824 6.50503 20.8314 7.05407 20.8314 7.73395C20.8316 7.89539 20.7999 8.05528 20.7383 8.20447C20.6766 8.35366 20.5861 8.48922 20.4719 8.60338C20.3577 8.71753 20.2222 8.80805 20.073 8.86973C19.9238 8.93142 19.7639 8.96307 19.6025 8.96287Z" fill="black"/>
</svg>
