<svg width="21" height="15" viewBox="0 0 21 15" fill="none" xmlns="http://www.w3.org/2000/svg">
<path d="M20.8512 5.82197C20.8512 5.37678 20.7787 4.85739 20.7787 4.2638C20.7061 3.67021 20.6336 3.07662 20.561 2.55722C20.4159 1.96363 20.1983 1.51844 19.7631 1.14745C19.4003 0.776455 18.8926 0.553851 18.3848 0.479652C16.7163 0.257056 14.2499 0.182861 10.9129 0.182861C7.57597 0.182861 5.03697 0.257056 3.44104 0.479652C2.93325 0.553851 2.42546 0.776455 2.06274 1.14745C1.70003 1.51844 1.40986 1.96363 1.26477 2.55722C1.11969 3.07662 1.04716 3.59601 1.04716 4.2638C0.974614 4.85739 0.974609 5.37678 0.974609 5.82197C0.974609 6.26717 0.974609 6.78656 0.974609 7.52855C0.974609 8.27054 0.974609 8.86413 0.974609 9.23513C0.974609 9.68032 1.04716 10.1997 1.04716 10.7933C1.1197 11.3869 1.19223 11.9805 1.26477 12.4999C1.40986 13.0935 1.62749 13.5387 2.06274 13.9097C2.42546 14.2807 2.93325 14.5032 3.44104 14.5774C5.10952 14.8 7.57597 14.8742 10.9129 14.8742C14.2499 14.8742 16.7888 14.8 18.3848 14.5774C18.8926 14.5032 19.4003 14.2807 19.7631 13.9097C20.1258 13.5387 20.4159 13.0935 20.561 12.4999C20.7061 11.9805 20.7787 11.4611 20.7787 10.7933C20.8512 10.1997 20.8512 9.68032 20.8512 9.23513C20.8512 8.78993 20.8512 8.27054 20.8512 7.52855C20.8512 6.78656 20.8512 6.19297 20.8512 5.82197ZM14.7576 8.12214L9.02681 11.7579C8.95427 11.8321 8.80918 11.9063 8.6641 11.9063C8.51901 11.9063 8.44647 11.9063 8.30139 11.8321C8.08376 11.6837 7.93867 11.4611 7.93867 11.1643V3.8186C7.93867 3.52181 8.08376 3.29922 8.30139 3.15082C8.51901 3.00242 8.80918 3.00242 9.02681 3.15082L14.7576 6.78656C14.9753 6.93496 15.1204 7.15756 15.1204 7.38015C15.1204 7.60275 14.9753 7.97374 14.7576 8.12214Z" fill="black"/>
</svg>
