<svg width="89" height="34" viewBox="0 0 89 34" fill="none" xmlns="http://www.w3.org/2000/svg">
<path d="M88.2505 19.8738L81.7743 12.0802C84.5774 11.4956 86.124 9.4498 86.124 6.1375C86.124 2.14325 83.9975 0 80.0344 0H65.7288V19.8738H68.6286C69.9818 19.8738 70.9484 18.997 70.9484 17.6331V12.275H75.6847L80.711 18.3151C81.581 19.3867 82.5476 19.8738 83.7075 19.8738H88.2505ZM79.4545 7.59881H70.8517V4.57877H79.4545C80.6144 4.57877 81.001 4.96845 81.001 6.1375C81.001 7.20913 80.6144 7.59881 79.4545 7.59881Z" fill="white"/>
<path d="M19.7187 19.8738H21.9418L13.6291 9.9369L21.9418 0H16.1422C15.1757 0 14.3057 0.487103 13.5324 1.26647L6.28296 9.9369L13.5324 18.6073C14.3057 19.4841 15.1757 19.9712 16.1422 19.9712H19.7187V19.8738Z" fill="white"/>
<path d="M27.7413 0H24.8416V17.6331C24.8416 18.997 25.7115 19.8738 27.1614 19.8738H30.0611V2.24067C29.9645 0.876786 29.0945 0 27.7413 0Z" fill="white"/>
<path d="M2.41628 19.8738H5.31609V2.24067C5.31609 0.876786 4.44614 0 2.99624 0H0.0964355V17.6331C0.0964355 18.997 0.966378 19.8738 2.41628 19.8738Z" fill="white"/>
<path d="M47.9428 0H33.4438V19.8738H36.3436C37.6969 19.8738 38.6635 18.997 38.6635 17.6331V12.275H48.0395C52.0025 12.275 54.129 10.1317 54.129 6.1375C54.0324 2.14325 51.9059 0 47.9428 0ZM47.3628 7.59881H38.5668V4.57877H47.3628C48.5228 4.57877 48.9094 4.96845 48.9094 6.1375C48.9094 7.20913 48.5228 7.59881 47.3628 7.59881Z" fill="white"/>
<path d="M57.1257 2.24067V19.8738H60.0255C61.3787 19.8738 62.3453 18.997 62.3453 17.6331V0H59.4455C57.9957 0 57.1257 0.876786 57.1257 2.24067Z" fill="white"/>
<path d="M52.913 26H51.6956C51.2609 26.0976 51 26.3902 51 26.878V33.9024C51 33.9024 51 33.9024 51 34H51.087H52.3044C52.7391 33.9024 53 33.6098 53 33.122V26.0976C53 26.0976 53 26.0976 53 26C52.913 26 52.913 26 52.913 26Z" fill="white"/>
<path d="M6.70834 27.7561C6.51389 27.3659 6.22222 27.0732 5.93056 26.7805C5.63889 26.4878 5.25 26.2927 4.76389 26.1951C4.375 26.0976 3.88889 26 3.30556 26H0.972223C0.680556 26 0.486111 26.0976 0.291666 26.2927C0.0972215 26.4878 0 26.6829 0 26.9756V33.7073C0 33.8049 -1.48494e-06 33.9024 0.0972208 33.9024C0.194443 34 0.194444 34 0.291666 34H3.40278C5.73611 34 6.90278 32.9268 7 30.878C7 30.7805 7 30.6829 7 30.4878C7 30.3902 7 30.1951 7 30C7 29.8049 7 29.6098 7 29.5122C7 29.3171 7 29.2195 7 29.122C7 28.6341 6.90278 28.1463 6.70834 27.7561ZM4.86111 30.5854C4.86111 30.6829 4.86111 30.878 4.86111 30.9756C4.86111 31.4634 4.76389 31.8537 4.47222 32.0488C4.27778 32.2439 3.88889 32.439 3.40278 32.439H2.625C2.52778 32.439 2.43056 32.439 2.33334 32.3415C2.23611 32.2439 2.23611 32.2439 2.23611 32.1463V27.8537H3.30556C4.27778 27.8537 4.76389 28.3415 4.76389 29.3171C4.76389 29.4146 4.76389 29.5122 4.76389 29.7073C4.76389 29.8049 4.76389 30 4.76389 30.1951C4.86111 30.2927 4.86111 30.3902 4.86111 30.5854Z" fill="white"/>
<path d="M22.9048 32.3415H19.5714C19.4762 32.3415 19.381 32.3415 19.2857 32.2439C19.1905 32.1463 19.1905 32.1463 19.1905 32.0488V30.878H21.9524C22.1429 30.878 22.2381 30.7805 22.2381 30.5854V29.5122C22.2381 29.3171 22.1429 29.2195 21.9524 29.2195H19.4762C19.3809 29.2195 19.2857 29.2195 19.1905 29.122C19.0952 29.0244 19.0952 29.0244 19.0952 28.9268V27.7561H22.619C22.7143 27.7561 22.8095 27.7561 22.8095 27.6585C22.9048 27.6585 22.9048 27.561 22.9048 27.4634V26.2927C22.9048 26.1951 22.9048 26.1951 22.8095 26.0976C22.7143 26 22.7143 26 22.619 26H17.9524C17.6667 26 17.4762 26.0976 17.2857 26.2927C17.0952 26.4878 17 26.6829 17 26.9756V33.7073C17 33.8049 17 33.9024 17.0952 33.9024C17.1905 34 17.1905 34 17.2857 34H22.7143C22.8095 34 22.9048 34 22.9048 33.9024C23 33.8049 23 33.8049 23 33.7073V32.5366C23 32.439 23 32.3415 22.9048 32.3415C23 32.3415 23 32.3415 22.9048 32.3415Z" fill="white"/>
<path d="M39.7268 29.5187C39.4368 29.3238 39.1469 29.2264 38.7602 29.129C38.3736 29.0316 38.0836 28.9341 37.697 28.9341C37.117 28.8367 36.6337 28.6419 36.4404 28.5445C36.2471 28.447 36.0537 28.2522 36.0537 28.0574C36.0537 27.9599 36.0537 27.7651 36.1504 27.6677C36.2471 27.5702 36.2471 27.4728 36.4404 27.4728C36.537 27.3754 36.6337 27.3754 36.7304 27.3754C36.827 27.3754 36.9237 27.3754 37.117 27.3754C37.2137 27.3754 37.3103 27.3754 37.407 27.3754C37.5036 27.3754 37.6003 27.4728 37.697 27.4728C37.7936 27.4728 37.8903 27.5702 37.9869 27.6677C38.0836 27.7651 38.0836 27.8625 38.1803 27.9599C38.2769 28.0574 38.3736 28.1548 38.5669 28.1548H40.2101C40.3068 28.1548 40.3068 28.1548 40.4034 28.0574C40.4034 27.9599 40.5001 27.9599 40.5001 27.8625C40.5001 27.5702 40.3068 27.1806 40.1135 26.7909C39.9201 26.596 39.7268 26.4012 39.5335 26.2064C39.3402 26.0115 39.0502 25.9141 38.8569 25.8167C38.5669 25.7193 38.3736 25.6218 38.0836 25.6218C37.7936 25.6218 37.5036 25.5244 37.3103 25.5244C36.9237 25.5244 36.537 25.5244 36.1504 25.6218C35.7638 25.7193 35.4738 25.8167 35.0871 26.0115C34.7972 26.2064 34.5072 26.4986 34.3139 26.7909C34.1205 27.0831 34.0239 27.4728 34.0239 27.9599C34.0239 28.3496 34.1205 28.7393 34.2172 29.0316C34.4105 29.3238 34.6038 29.5187 34.7972 29.7135C35.0871 29.9083 35.3771 30.0058 35.6671 30.1032C35.9571 30.2006 36.3437 30.298 36.7304 30.3954C36.9237 30.4929 37.2137 30.4929 37.407 30.5903C37.6003 30.5903 37.697 30.6877 37.8903 30.6877C38.0836 30.7851 38.1803 30.7851 38.3736 30.8825C38.5669 30.98 38.5669 31.1748 38.5669 31.3697C38.5669 31.5645 38.5669 31.6619 38.4702 31.7593C38.3736 31.8568 38.2769 31.9542 38.1803 31.9542C38.0836 32.0516 37.8903 32.0516 37.7936 32.0516C37.6003 32.0516 37.5036 32.0516 37.407 32.0516C37.117 32.0516 36.9237 32.0516 36.6337 31.9542C36.4404 31.8568 36.2471 31.6619 36.0537 31.4671C35.9571 31.3697 35.9571 31.3696 35.8604 31.2722C35.7638 31.2722 35.7638 31.2722 35.6671 31.2722H34.1205C34.0239 31.2722 34.0239 31.2722 33.9272 31.3697C33.9272 31.3697 33.8306 31.4671 33.8306 31.5645C33.8306 31.9542 34.0239 32.3439 34.2172 32.7335C34.4105 32.9284 34.6038 33.1232 34.7972 33.3181C34.9905 33.5129 35.2805 33.6103 35.5704 33.7077C35.8604 33.8052 36.1504 33.9026 36.4404 33.9026C36.7304 33.9026 37.0203 34 37.3103 34C37.697 34 38.0836 34 38.4702 33.9026C38.8569 33.8052 39.2435 33.7077 39.6302 33.5129C39.9201 33.3181 40.2101 33.0258 40.5001 32.7335C40.6934 32.4413 40.7901 32.0516 40.7901 31.5645C40.7901 31.1748 40.6934 30.7851 40.5001 30.4929C40.3068 29.9083 40.0168 29.7135 39.7268 29.5187Z" fill="white"/>
<path d="M70.16 29.5238H68.48C68.2933 29.5238 68.2 29.5238 68.1067 29.619C68.0133 29.7143 67.92 29.7143 67.8267 29.8095C67.7333 29.9048 67.64 30 67.64 30.0952C67.64 30.1905 67.5467 30.2857 67.5467 30.4762V30.6667C67.5467 30.7619 67.5467 30.8571 67.64 30.8571C67.7333 30.9524 67.7333 30.9524 67.8267 30.9524H68.9467C68.9467 31.0476 68.9467 31.2381 68.9467 31.2381C68.9467 31.619 68.8533 31.9048 68.6667 32.1905C68.5733 32.1905 68.5733 32.2857 68.5733 32.2857C68.48 32.2857 68.48 32.381 68.3867 32.381C68.3037 32.381 68.2 32.381 68.1067 32.4762C68.0133 32.4762 67.8267 32.4762 67.64 32.4762C67.08 32.4762 66.7067 32.381 66.52 32.0952C66.3333 31.9048 66.1467 31.5238 66.1467 31.0476C66.1467 30.9524 66.1467 30.7619 66.1467 30.6667C66.1467 30.4762 66.1467 30.2857 66.1467 30.0952C66.1467 29.9048 66.1467 29.7143 66.1467 29.5238C66.1467 29.3333 66.1467 29.2381 66.1467 29.1429C66.1467 28.2857 66.6133 27.8095 67.4533 27.8095C67.8267 27.8095 68.1067 27.9048 68.2933 28C68.3867 28.0952 68.48 28.1905 68.5733 28.2857C68.6667 28.381 68.6667 28.4762 68.76 28.5714L68.8533 28.6667C68.8533 28.6667 68.9467 28.6667 69.04 28.6667H70.72C70.8133 28.6667 70.8133 28.6667 70.9067 28.5714C71 28.4762 71 28.4762 71 28.381C71 28 70.8133 27.619 70.5333 27.2381C70.3467 27.0476 70.16 26.8571 69.88 26.6667C69.6 26.4762 69.4133 26.381 69.1333 26.2857C68.8533 26.1905 68.5733 26.0952 68.2933 26.0952C68.0133 26 67.7333 26 67.4533 26C66.9867 26 66.52 26.0952 66.1467 26.1905C65.7733 26.2857 65.4 26.4762 65.0267 26.7619C64.7467 27.0476 64.4667 27.3333 64.28 27.7143C64.0933 28.0952 64 28.5714 64 29.0476C64 29.1429 64 29.3333 64 29.4286C64 29.619 64 29.8095 64 30C64 30.2857 64 30.4762 64 30.5714C64 30.7619 64 30.8571 64 30.9524C64 31.5238 64.0933 31.9048 64.28 32.2857C64.4667 32.6667 64.7467 32.9524 65.0267 33.2381C65.3067 33.5238 65.68 33.7143 66.1467 33.8095C66.52 33.9048 66.9867 34 67.5467 34C68.0133 34 68.48 33.9048 68.8533 33.8095H68.9467H69.04C69.4133 33.7143 69.7867 33.5238 69.9733 33.3333C70.2533 33.1429 70.44 32.8571 70.6267 32.4762C70.8133 32.0952 70.9067 31.619 70.9067 31.0476V30.2857C70.9067 30 70.8133 29.8095 70.72 29.7143C70.6267 29.5238 70.3467 29.5238 70.16 29.5238Z" fill="white"/>
<path d="M87.7 26H86.9C86.8 26 86.6 26 86.5 26.0976C86.4 26.1951 86.3 26.1951 86.2 26.2927C86.1 26.3902 86 26.4878 86 26.5854C85.9 26.6829 85.9 26.878 85.9 26.9756V30.2927C85.9 30.2927 85.9 30.3902 85.8 30.3902C85.8 30.3902 85.8 30.3902 85.7 30.3902C85.7 30.3902 85.6 30.2927 85.6 30.1951C85.5 30.0976 85.4 29.9024 85.3 29.7073C85.2 29.5122 85.1 29.3171 84.9 29.122C84.8 28.9268 84.6 28.6341 84.4 28.3415C84 27.7561 83.6 27.1707 83.1 26.3902C83 26.1951 82.9 26.0976 82.7 26.0976C82.6 26.0976 82.5 26 82.4 26H82C81.7 26 81.5 26.0976 81.3 26.2927C81.1 26.4878 81 26.6829 81 26.9756V33.7073C81 33.8049 81 33.8049 81.1 33.9024C81.2 34 81.2 34 81.3 34H82.8C82.9 34 83 34 83 33.9024C83.1 33.8049 83.1 33.8049 83.1 33.7073V29.9024C83.1 29.9024 83.1 29.8049 83.2 29.8049C83.2 29.8049 83.2 29.8049 83.3 29.8049C83.3 29.8049 83.4 29.9024 83.4 30C83.5 30.0976 83.6 30.2927 83.7 30.4878C83.8 30.6829 83.9 30.878 84.1 31.0732C84.2 31.2683 84.4 31.561 84.7 31.8537C85.1 32.439 85.5 33.0244 86 33.8049C86.1 33.9024 86.2 34 86.4 34H87.7C87.8 34 87.9 34 87.9 33.9024C88 33.8049 88 33.8049 88 33.7073V26.2927C88 26.1951 88 26.0976 87.9 26.0976C87.8 26 87.8 26 87.7 26Z" fill="white"/>
</svg>
