<svg width="100" height="39" viewBox="0 0 100 39" fill="none" xmlns="http://www.w3.org/2000/svg">
<g clip-path="url(#clip0)">
<path d="M99.9002 22.5L92.5002 13.7C95.7002 13.1 97.5002 10.7 97.5002 7C97.5002 2.6 95.0002 0.1 90.6002 0.1H80.1002H79.6002H74.2002V22.5H77.4002C79.0002 22.5 80.0002 21.5 80.0002 19.9V13.9H85.4002L91.1002 20.7C92.1002 21.9 93.2002 22.5 94.5002 22.5H99.9002V22.5ZM89.9002 8.7H80.1002V5.2H89.9002C91.2002 5.2 91.7002 5.6 91.7002 6.9C91.7002 8.2 91.2002 8.7 89.9002 8.7Z" fill="white"/>
<path d="M22.2001 22.4H24.8001L15.4001 11.2L24.8001 0H22.2001H20.8001H18.2001C17.1001 0 16.2001 0.5 15.3001 1.5L7.1001 11.2L15.3001 20.9C16.2001 21.9 17.2001 22.4 18.2001 22.4H20.8001H22.2001Z" fill="white"/>
<path d="M31.3001 0.1H28.1001V19.9C28.1001 21.5 29.1001 22.5 30.7001 22.5H33.9001V2.6C33.9001 1.1 32.9001 0.1 31.3001 0.1Z" fill="white"/>
<path d="M2.6 22.5H5.8V2.6C5.8 1 4.8 0 3.2 0H0V19.8C0 21.4 1 22.5 2.6 22.5Z" fill="white"/>
<path d="M54.1998 0.1H43.5998H43.3998H37.7998V22.5H40.9998C42.5998 22.5 43.5998 21.5 43.5998 19.9V13.8H54.2998C58.7998 13.8 61.1998 11.4 61.1998 6.9C61.1998 2.5 58.6998 0.1 54.1998 0.1ZM53.5998 8.7H43.5998V5.2H53.5998C54.8998 5.2 55.3998 5.6 55.3998 6.9C55.2998 8.2 54.8998 8.7 53.5998 8.7Z" fill="white"/>
<path d="M64.6001 2.6V22.4H67.8001C69.4001 22.4 70.4001 21.4 70.4001 19.8V0.1H67.2001C65.6001 0.1 64.6001 1.1 64.6001 2.6Z" fill="white"/>
<path d="M6.4 29.1H1.1C1 29.1 0.8 29.1 0.7 29.2C0.6 29.3 0.4 29.3 0.3 29.4C0.2 29.5 0.1 29.6 0 29.8C0 29.9 0 30.1 0 30.3V37.9C0 38 0 38.1 0.1 38.1C0.2 38.2 0.2 38.2 0.3 38.2H0.9H2H2.3V35H5.4C5.5 35 5.6 35 5.6 34.9C5.7 34.8 5.7 34.8 5.7 34.7V33.3C5.7 33.1 5.6 33 5.4 33H2.4V31.2H6.4C6.5 31.2 6.6 31.2 6.6 31.1C6.7 31 6.7 31 6.7 30.9V29.5C6.7 29.4 6.7 29.3 6.6 29.3C6.5 29.2 6.5 29.1 6.4 29.1Z" fill="white"/>
<path d="M19.8999 29.5C19.7999 29.2 19.5999 29.1 19.3999 29.1H17.3999C17.0999 29.1 16.9999 29.2 16.8999 29.5L13.8999 37.8V37.9C13.8999 37.9 13.8999 38 13.9999 38.1C14.0999 38.1 14.0999 38.2 14.1999 38.2H15.8999H16.2999L16.6999 37H20.2999L20.6999 38.2H20.9999H22.5999C22.6999 38.2 22.6999 38.2 22.7999 38.1C22.9999 38.1 22.9999 38 22.9999 37.9C22.9999 37.8 22.9999 37.8 22.9999 37.8L19.8999 29.5ZM17.2999 35L18.3999 31.7L19.4999 35H17.2999Z" fill="white"/>
<path d="M34.2999 30.8C34.6999 30.8 34.9999 30.9 35.2999 31.1C35.4999 31.3 35.6999 31.6 35.8999 32C35.8999 32.1 35.9999 32.2 36.0999 32.3C36.1999 32.3 36.1999 32.4 36.3999 32.4H38.2999C38.3999 32.4 38.3999 32.4 38.4999 32.3C38.5999 32.2 38.5999 32.2 38.5999 32.1C38.5999 31.4 38.3999 30.9 37.9999 30.4C37.5999 29.9 37.1999 29.6 36.4999 29.3C35.8999 29 35.1999 28.9 34.3999 28.9C33.1999 28.9 32.1999 29.2 31.4999 29.8C30.7999 30.4 30.3999 31.3 30.3999 32.4C30.3999 32.6 30.3999 33 30.3999 33.6C30.3999 34.1 30.3999 34.5 30.3999 34.7C30.3999 35.9 30.7999 36.7 31.4999 37.3C32.1999 37.9 33.1999 38.2 34.3999 38.2C35.1999 38.2 35.8999 38.1 36.4999 37.8C37.0999 37.5 37.5999 37.2 37.9999 36.7C38.3999 36.2 38.4999 35.7 38.5999 35C38.5999 34.9 38.5999 34.9 38.4999 34.8C38.3999 34.7 38.3999 34.7 38.2999 34.7H36.3999C36.2999 34.7 36.1999 34.7 36.0999 34.8C35.9999 34.8 35.9999 34.9 35.9999 35.1C35.8999 35.5 35.6999 35.8 35.3999 36C35.0999 36.2 34.7999 36.3 34.3999 36.3C33.3999 36.3 32.8999 35.8 32.8999 34.7C32.8999 34.4 32.8999 34.1 32.8999 33.6C32.8999 33.1 32.8999 32.8 32.8999 32.5C32.7999 31.3 33.2999 30.8 34.2999 30.8Z" fill="white"/>
<path d="M53.1001 29.1H46.8001C46.7001 29.1 46.5001 29.1 46.4001 29.2C46.3001 29.3 46.1001 29.3 46.0001 29.4C45.9001 29.5 45.8001 29.6 45.7001 29.8C45.6001 29.9 45.6001 30.1 45.6001 30.3V31C45.6001 31.1 45.6001 31.2 45.7001 31.2C45.8001 31.3 45.8001 31.3 45.9001 31.3H47.8001C47.9001 31.3 48.0001 31.3 48.1001 31.4C48.2001 31.5 48.2001 31.6 48.2001 31.7V38C48.2001 38.1 48.2001 38.2 48.3001 38.2C48.4001 38.3 48.4001 38.3 48.5001 38.3H49.2001H50.3001H50.6001V31.3H52.9001C53.0001 31.3 53.1001 31.3 53.1001 31.2C53.2001 31.1 53.2001 31.1 53.2001 31V29.5C53.2001 29.4 53.2001 29.3 53.1001 29.3C53.3001 29.2 53.2001 29.1 53.1001 29.1Z" fill="white"/>
<path d="M67.6998 29.8C66.9998 29.2 65.9998 28.9 64.7998 28.9C63.5998 28.9 62.5998 29.2 61.8998 29.8C61.1998 30.4 60.7998 31.3 60.7998 32.5C60.7998 32.8 60.7998 33.1 60.7998 33.6C60.7998 34.1 60.7998 34.5 60.7998 34.7C60.7998 35.9 61.1998 36.7 61.8998 37.4C62.5998 38 63.5998 38.3 64.7998 38.3C65.9998 38.3 66.9998 38 67.6998 37.4C68.3998 36.8 68.7998 35.9 68.7998 34.7C68.7998 34.2 68.7998 33.8 68.7998 33.6C68.7998 33.3 68.7998 33 68.7998 32.5C68.7998 31.3 68.3998 30.4 67.6998 29.8ZM66.2998 34.6C66.2998 35.2 66.0998 35.6 65.8998 35.9C65.5998 36.2 65.2998 36.3 64.7998 36.3C64.2998 36.3 63.9998 36.2 63.6998 35.9C63.3998 35.6 63.2998 35.2 63.2998 34.6C63.2998 34.3 63.2998 34 63.2998 33.5C63.2998 33 63.2998 32.7 63.2998 32.4C63.2998 31.8 63.4998 31.4 63.6998 31.1C63.9998 30.8 64.2998 30.7 64.7998 30.7C65.2998 30.7 65.5998 30.8 65.8998 31.1C66.1998 31.4 66.2998 31.8 66.2998 32.4C66.2998 32.9 66.2998 33.2 66.2998 33.5C66.2998 33.7 66.2998 34.1 66.2998 34.6Z" fill="white"/>
<path d="M82.8999 34.8V34.7C82.8999 34.6 82.8999 34.6 82.9999 34.5C83.4999 34.2 83.7999 33.9 83.9999 33.5C84.1999 33.1 84.3999 32.6 84.3999 32.1C84.3999 31.6 84.2999 31.1 84.0999 30.7C83.8999 30.3 83.5999 30 83.2999 29.8C82.9999 29.6 82.5999 29.4 82.0999 29.3C81.6999 29.2 81.1999 29.1 80.6999 29.1H77.9999C77.6999 29.1 77.3999 29.2 77.1999 29.4C76.9999 29.6 76.8999 29.9 76.8999 30.2V37.9C76.8999 38 76.8999 38.1 76.9999 38.1C77.0999 38.2 77.0999 38.2 77.1999 38.2H77.7999H78.9999H79.2999V35H80.2999C80.4999 35 80.5999 35.1 80.6999 35.2L81.9999 37.8C82.0999 38 82.2999 38.1 82.4999 38.1H84.2999C84.3999 38.1 84.3999 38.1 84.4999 38C84.5999 37.9 84.5999 37.9 84.5999 37.8V37.7L82.8999 34.8ZM81.5999 32.9C81.3999 33.1 81.0999 33.2 80.7999 33.2H79.6999C79.5999 33.2 79.4999 33.2 79.3999 33.1V31.1H80.7999C81.0999 31.1 81.3999 31.2 81.5999 31.4C81.7999 31.6 81.8999 31.9 81.8999 32.2C81.8999 32.5 81.7999 32.7 81.5999 32.9Z" fill="white"/>
<path d="M99.7998 29.2C99.6998 29.1 99.6998 29.1 99.5998 29.1H97.8998C97.6998 29.1 97.4998 29.2 97.3998 29.4C97.0998 30 96.7998 30.5 96.5998 30.9C96.4998 31.1 96.3998 31.3 96.2998 31.5C96.1998 31.7 96.0998 31.9 95.9998 32C95.8998 32.1 95.7998 32.3 95.7998 32.4C95.6998 32.5 95.6998 32.6 95.6998 32.6C95.6998 32.6 95.6998 32.6 95.5998 32.6C95.5998 32.6 95.5998 32.6 95.4998 32.6C95.4998 32.6 95.4998 32.5 95.3998 32.4C95.2998 32.3 95.2998 32.2 95.1998 32C95.0998 31.9 94.9998 31.7 94.9998 31.5C94.8998 31.3 94.7998 31.1 94.5998 30.8C94.2998 30.3 94.0998 29.8 93.7998 29.3C93.7998 29.2 93.6998 29.1 93.5998 29.1C93.4998 29.1 93.3998 29 93.2998 29H91.5998C91.4998 29 91.4998 29 91.3998 29.1C91.2998 29.2 91.2998 29.2 91.2998 29.3C91.2998 29.4 91.2998 29.4 91.2998 29.4L94.0998 34.7C94.1998 34.8 94.1998 34.9 94.1998 35.1C94.1998 35.2 94.2998 35.4 94.2998 35.5V37.8C94.2998 37.9 94.2998 38 94.3998 38C94.4998 38.1 94.4998 38.1 94.5998 38.1H95.1998H96.2998H96.5998V35.4C96.5998 35.3 96.5998 35.2 96.5998 35C96.5998 34.9 96.6998 34.7 96.6998 34.6C96.6998 34.6 96.7998 34.5 96.8998 34.3C96.9998 34.1 97.0998 33.9 97.1998 33.7C97.2998 33.5 97.4998 33.2 97.5998 33C97.6998 32.7 97.8998 32.4 98.1998 31.9C98.5998 31.2 99.0998 30.3 99.5998 29.4V29.3C99.8998 29.3 99.8998 29.3 99.7998 29.2Z" fill="white"/>
</g>
<defs>
<clipPath id="clip0">
<rect width="99.9" height="38.2" fill="white"/>
</clipPath>
</defs>
</svg>
