<svg width="24" height="14" viewBox="0 0 24 14" fill="none" xmlns="http://www.w3.org/2000/svg">
<path d="M23.3149 12.4535C23.3149 12.3588 23.222 12.3588 23.222 12.264C22.8507 11.5064 22.0152 10.5593 20.9011 9.51756C20.3441 9.04402 20.0655 8.66519 19.8799 8.47578C19.6014 8.09695 19.6014 7.81284 19.6942 7.43401C19.7871 7.14989 20.1584 6.67634 20.8083 5.82398C21.1796 5.35045 21.3653 5.06634 21.6438 4.78222C23.0364 2.88808 23.6862 1.65688 23.5005 1.08864L23.4077 0.993943C23.3149 0.899236 23.222 0.804533 23.0364 0.804533C22.8507 0.709826 22.5722 0.709826 22.2937 0.804533H18.7658C18.673 0.804533 18.673 0.804533 18.4873 0.804533C18.3945 0.804533 18.3016 0.804533 18.3016 0.804533H18.2088H18.116L18.0231 0.899231C17.9303 0.993937 17.9303 0.993935 17.9303 1.08864C17.5589 2.13042 17.0947 2.98278 16.6305 3.92985C16.352 4.40338 16.0735 4.87692 15.795 5.25575C15.5165 5.63458 15.3308 5.91869 15.1451 6.10811C14.9595 6.29752 14.7738 6.39223 14.6809 6.58164C14.5881 6.67635 14.4024 6.77106 14.4024 6.67635C14.3096 6.67635 14.2168 6.67635 14.2168 6.58164C14.1239 6.48693 14.0311 6.39222 13.9383 6.29752C13.8454 6.20281 13.8454 6.0134 13.7526 5.82398C13.7526 5.63457 13.7526 5.44516 13.7526 5.35045C13.7526 5.25574 13.7526 4.97163 13.7526 4.78222C13.7526 4.4981 13.7526 4.30868 13.7526 4.21397C13.7526 3.92985 13.7526 3.55103 13.7526 3.1722C13.7526 2.79338 13.7526 2.50925 13.7526 2.31983C13.7526 2.13042 13.7526 1.8463 13.7526 1.65689C13.7526 1.37277 13.7526 1.18335 13.7526 1.08864C13.7526 0.993935 13.6598 0.804527 13.6598 0.70982C13.5669 0.615113 13.4741 0.520403 13.3812 0.425697C13.2884 0.33099 13.1027 0.330993 13.0099 0.236286C12.5457 0.141579 11.9887 0.046875 11.3388 0.046875C9.8534 0.046875 8.83218 0.141585 8.46082 0.330998C8.27515 0.425705 8.08947 0.520406 7.99663 0.70982C7.81096 0.899234 7.81095 0.993943 7.90379 0.993943C8.36798 1.08865 8.73934 1.27806 8.92501 1.56218L9.01786 1.7516C9.11069 1.84631 9.11068 2.03571 9.20352 2.31983C9.29635 2.60395 9.29636 2.88807 9.29636 3.2669C9.29636 3.83514 9.29636 4.40339 9.29636 4.78222C9.29636 5.25575 9.20352 5.53986 9.20352 5.82398C9.20352 6.1081 9.11069 6.29752 9.01786 6.39223C8.92502 6.58164 8.92501 6.67635 8.83217 6.67635C8.83217 6.67635 8.83216 6.77105 8.73933 6.77105C8.64649 6.77105 8.55366 6.86576 8.36798 6.86576C8.27514 6.86576 8.08947 6.77106 7.99663 6.67635C7.81096 6.58165 7.62528 6.39223 7.53244 6.20282C7.34677 6.01341 7.16109 5.72928 6.97541 5.35045C6.78974 4.97162 6.51121 4.5928 6.32554 4.02456L6.13988 3.64574C6.04704 3.45632 5.86136 3.07749 5.67569 2.60396C5.49001 2.13042 5.30433 1.7516 5.11865 1.27807C5.02582 1.08865 4.93299 0.993937 4.84015 0.899231H4.74731C4.74731 0.899231 4.65446 0.804533 4.56162 0.804533C4.46878 0.804533 4.37596 0.70982 4.28312 0.70982H0.940948C0.569597 0.70982 0.383924 0.804524 0.291086 0.899231L0.198242 0.993943C0.198242 0.993943 0.198242 1.08865 0.198242 1.18335C0.198242 1.27806 0.198248 1.37276 0.291086 1.56218C0.755275 2.69866 1.3123 3.83515 1.86933 4.97163C2.42635 6.0134 2.98339 6.96047 3.35474 7.62342C3.81893 8.28637 4.19027 8.94932 4.65446 9.51756C5.11865 10.0858 5.39716 10.4646 5.49 10.654C5.67568 10.8435 5.76851 10.9382 5.86135 11.0329L6.13988 11.317C6.32555 11.5064 6.60406 11.7905 6.97541 12.0746C7.34676 12.3588 7.81095 12.6429 8.27514 12.927C8.73933 13.2111 9.29636 13.4005 9.85339 13.59C10.5033 13.7794 11.0603 13.8741 11.6173 13.7794H13.0099C13.2884 13.7794 13.4741 13.6847 13.6598 13.4952L13.7526 13.4005C13.7526 13.3058 13.8454 13.3058 13.8454 13.2111C13.8454 13.1164 13.8454 13.0217 13.8454 12.8323C13.8454 12.4535 13.8454 12.1693 13.9383 11.8852C14.0311 11.6011 14.0311 11.4117 14.1239 11.2223C14.2168 11.0329 14.3096 10.9382 14.4024 10.8434C14.4953 10.7487 14.5881 10.654 14.5881 10.654H14.6809C14.8666 10.5593 15.1451 10.654 15.3308 10.8434C15.6093 11.0329 15.8878 11.317 16.0735 11.6011C16.2592 11.8852 16.5377 12.1693 16.9091 12.5482C17.2804 12.927 17.5589 13.2111 17.7446 13.3058L18.0231 13.4952C18.2088 13.5899 18.3945 13.6847 18.673 13.7794C18.9515 13.8741 19.1372 13.8741 19.3228 13.8741L22.4794 13.7794C22.7579 13.7794 23.0364 13.6847 23.222 13.59C23.4077 13.4952 23.5005 13.4005 23.5005 13.2111C23.5005 13.1164 23.5005 12.927 23.5005 12.8323C23.3149 12.6429 23.3149 12.5482 23.3149 12.4535Z" fill="black"/>
</svg>
